<?xml version="1.0" standalone="no"?>
<!DOCTYPE svg PUBLIC "-//W3C//DTD SVG 20010904//EN"
 "http://www.w3.org/TR/2001/REC-SVG-20010904/DTD/svg10.dtd">
<svg version="1.0" xmlns="http://www.w3.org/2000/svg"
 width="1920.000000pt" height="1920.000000pt" viewBox="0 0 1920.000000 1920.000000"
 preserveAspectRatio="xMidYMid meet">
<metadata>
Created by potrace 1.11, written by Peter Selinger 2001-2013
</metadata>
<g transform="translate(0.000000,1920.000000) scale(0.100000,-0.100000)"
fill="#000000" stroke="none">
<path d="M48 18143 c-32 -20 -48 -52 -48 -96 0 -47 21 -70 107 -118 361 -197
759 -521 1061 -862 505 -570 832 -1243 967 -1989 53 -291 68 -475 69 -847 l2
-344 51 -47 c119 -110 423 -297 708 -436 430 -210 879 -364 1390 -479 193 -43
491 -97 613 -111 34 -3 62 -9 62 -13 0 -3 -25 -21 -55 -39 -329 -199 -749
-632 -1058 -1089 -151 -223 -197 -305 -197 -351 0 -44 28 -88 65 -102 13 -5
101 -14 196 -19 179 -12 421 -3 597 20 46 6 85 9 87 8 2 -2 -21 -40 -51 -84
-367 -537 -664 -1193 -829 -1828 -326 -1261 -447 -3812 -305 -6392 38 -673 75
-1075 106 -1141 34 -71 174 -105 290 -68 79 25 185 97 274 188 41 42 77 76 81
76 3 0 12 -26 19 -57 35 -159 121 -385 177 -466 51 -74 132 -98 198 -57 59 37
71 80 175 655 28 154 57 307 64 340 l14 60 2 -45 c0 -25 5 -207 10 -405 6
-247 13 -373 22 -400 19 -59 112 -150 167 -165 88 -23 168 35 205 148 21 64
43 213 56 390 13 161 19 206 28 182 27 -80 176 -339 238 -413 17 -20 24 -41
24 -70 0 -61 25 -168 50 -218 113 -224 358 -331 845 -369 178 -14 1161 -21
1490 -10 531 17 805 61 1015 162 65 31 101 57 156 112 39 39 77 86 85 103 12
30 17 32 49 27 52 -8 118 30 152 86 61 100 61 241 -2 614 -40 237 -57 365 -47
356 12 -12 73 -353 126 -710 80 -539 80 -537 121 -583 24 -27 35 -32 73 -32
31 0 52 6 67 20 44 40 50 67 60 278 22 447 23 454 32 417 5 -19 9 -100 8 -180
0 -165 11 -223 62 -307 116 -192 396 -303 863 -344 431 -37 1626 -36 1992 1
377 39 610 147 712 331 l37 69 22 -119 c33 -177 57 -249 102 -293 42 -42 80
-49 130 -23 65 34 75 67 165 560 93 516 132 682 193 824 l18 45 52 -86 c29
-47 120 -224 203 -394 205 -421 270 -514 372 -531 50 -8 81 2 122 39 62 54 78
98 83 221 5 139 -8 241 -73 572 -85 430 -118 635 -102 635 6 0 47 -131 105
-335 39 -138 66 -239 157 -585 76 -293 86 -329 132 -490 97 -337 140 -419 227
-436 45 -8 101 18 126 58 18 30 20 50 20 218 0 102 -5 309 -10 460 -5 151 -19
536 -30 855 -33 948 -49 1405 -60 1670 -5 138 -15 383 -20 545 -6 162 -15 401
-20 530 -6 129 -17 420 -25 645 -8 226 -19 523 -25 660 -15 393 -29 738 -50
1305 -30 804 -31 808 -51 915 -150 768 -464 1523 -905 2173 -46 67 -82 122
-80 122 3 0 38 -7 80 -15 226 -43 494 -59 739 -45 188 12 222 20 251 62 32 45
21 88 -55 214 -192 320 -403 588 -674 860 -189 190 -305 289 -468 397 -108 73
-109 68 13 82 157 18 506 85 735 140 679 165 1314 431 1784 749 74 50 157 112
185 137 l50 46 2 344 c1 367 12 508 59 791 180 1061 736 1967 1617 2634 117
89 295 205 416 271 94 51 112 72 112 126 0 31 -7 46 -35 74 l-36 36 -177 -6
c-795 -26 -1526 -507 -2172 -1431 -336 -480 -691 -1191 -897 -1793 l-48 -142
-110 -54 c-212 -105 -568 -225 -820 -277 -273 -57 -565 -74 -755 -46 -52 8
-151 33 -220 56 -528 173 -644 209 -865 274 -748 217 -1351 295 -1791 232
l-82 -12 -5 251 c-11 502 -92 806 -227 846 -106 32 -184 -37 -304 -270 -83
-160 -141 -257 -169 -279 -14 -12 -18 -9 -34 20 -27 49 -23 228 10 454 48 329
46 419 -9 532 -37 76 -90 112 -162 112 -125 0 -181 -64 -432 -495 -118 -203
-215 -346 -281 -413 l-52 -53 -25 23 c-53 50 -119 210 -217 529 -109 357 -152
445 -239 485 -133 62 -259 -3 -320 -165 -14 -36 -47 -156 -74 -266 -73 -293
-126 -413 -213 -478 -26 -19 -28 -19 -65 -1 -23 10 -99 78 -179 160 -77 78
-158 153 -180 167 -120 76 -221 24 -306 -159 -80 -170 -111 -375 -91 -598 11
-113 33 -245 57 -336 l6 -26 -218 -12 c-574 -30 -1108 -159 -2257 -543 -378
-127 -1159 5 -1740 292 l-101 50 -49 142 c-173 507 -458 1106 -743 1561 -313
501 -684 919 -1062 1200 -412 305 -870 467 -1323 466 -88 0 -119 -4 -140 -17z"/>
</g>
</svg>
